<?xml version="1.0" encoding="utf-8"?>
<svg viewBox="0 0 500 500" xmlns="http://www.w3.org/2000/svg" xmlns:bx="https://boxy-svg.com">
  <defs>
    <linearGradient gradientUnits="userSpaceOnUse" x1="323.568" y1="209.545" x2="323.568" y2="256.798" id="gradient-0" gradientTransform="matrix(0.904383, -0.426724, 0.393911, 0.834841, -72.102083, 177.72134)">
      <stop offset="0" style="stop-color: rgba(178, 0, 227, 1)"/>
      <stop offset="1" style="stop-color: rgb(125, 87, 0);"/>
    </linearGradient>
    <linearGradient gradientUnits="userSpaceOnUse" x1="126.246" y1="155.333" x2="126.246" y2="321.945" id="gradient-1" gradientTransform="matrix(0.844666, -0.535295, 0.718215, 1.133302, -132.873681, 36.712975)">
      <stop offset="0" style="stop-color: rgba(170, 0, 217, 1)"/>
      <stop offset="1" style="stop-color: rgb(115, 88, 0);"/>
    </linearGradient>
    <style bx:fonts="Alatsi">@import url(https://fonts.googleapis.com/css2?family=Alatsi%3Aital%2Cwght%400%2C400&amp;display=swap);</style>
  </defs>
  <text style="fill: url(#gradient-0); font-family: Alatsi; font-size: 22.3px; font-weight: 700; white-space: pre;" transform="matrix(4.594142, 0, 0, 4.594142, -1136.288086, -839.288269)"><tspan x="295.061" y="229.741">Gram</tspan><tspan x="295.061" dy="1em">​</tspan><tspan>Down</tspan></text>
  <ellipse style="stroke: rgb(0, 0, 0); fill: url(#gradient-1); stroke-width: 0px;" cx="126.246" cy="238.639" rx="83.306" ry="83.306"/>
  <path d="M 96.718 185.328 H 158.807 A 21.999 21.999 0 0 1 180.806 207.327 V 269.416 A 21.999 21.999 0 0 1 158.807 291.415 H 96.718 A 21.999 21.999 0 0 1 74.719 269.416 V 207.327 A 21.999 21.999 0 0 1 96.718 185.328 Z M 87.918 213.927 V 262.817 A 15.4 15.4 0 0 0 103.318 278.216 H 152.208 A 15.4 15.4 0 0 0 167.607 262.817 V 213.927 A 15.4 15.4 0 0 0 152.208 198.527 H 103.318 A 15.4 15.4 0 0 0 87.918 213.927 Z" style="stroke-width: 0px; stroke: rgb(255, 255, 255); fill: rgb(255, 255, 255);" bx:shape="frame 74.719 185.328 106.087 106.087 13.199 13.199 21.999 21.999 21.999 21.999 1@6e27b7cc"/>
  <path d="M 128.02 238.868 m -26.614 0 a 26.614 26.614 0 1 0 53.228 0 a 26.614 26.614 0 1 0 -53.228 0 Z M 128.02 238.868 m -15.969 0 a 15.969 15.969 0 0 1 31.938 0 a 15.969 15.969 0 0 1 -31.938 0 Z" style="stroke-width: 0px; stroke: rgb(255, 255, 255); fill: rgb(255, 255, 255);" bx:shape="ring 128.02 238.868 15.969 15.969 26.614 26.614 1@84e13dbe"/>
  <path d="M 152.926 212.538 m -4.825 0 a 4.825 4.773 0 1 0 9.65 0 a 4.825 4.773 0 1 0 -9.65 0 Z M 152.926 212.538 m -2.895 0 a 2.895 2.864 0 0 1 5.79 0 a 2.895 2.864 0 0 1 -5.79 0 Z" style="stroke: rgb(0, 0, 0); stroke-width: 0px; fill: rgb(255, 255, 255);" bx:shape="ring 152.926 212.538 2.895 2.864 4.825 4.773 1@bc965fd2"/>
</svg>